<?xml version="1.0" encoding="utf-8"?>
<!DOCTYPE svg PUBLIC "-//W3C//DTD SVG 1.1//EN" "http://www.w3.org/Graphics/SVG/1.1/DTD/svg11.dtd">
<svg viewBox="0 0 800 800" preserveAspectRatio="xMinYMin meet" xmlns="http://www.w3.org/2000/svg" version="1.1">
<g fill="none" stroke="black" stroke-linecap="round" stroke-linejoin="round" stroke-width="1.1473">
<g transform="translate(0,0) scale(1) translate(0,0)">
<path id="0" d="M 128.0,256.0 C 128.0,291.346 99.346,320.0 64.0,320.0 C 28.653999999999996,320.0 0.0,291.346 0.0,256.0 C 0.0,220.654 28.654,192.0 64.0,192.0 C 99.346,192.0 128.0,220.654 128.0,256.0"/>
<path id="1" d="M 64.0,384.0 C 46.327,384.0 32.0,398.327 32.0,416.0 C 32.0,433.673 46.327,448.0 64.0,448.0 C 81.673,448.0 96.0,433.673 96.0,416.0 C 96.0,398.327 81.673,384.0 64.0,384.0"/>
<path id="2" d="M 64.0,32.0 C 28.654,32.0 0.0,60.654 0.0,96.0 C 0.0,131.346 28.654,160.0 64.0,160.0 C 99.346,160.0 128.0,131.346 128.0,96.0 C 128.0,60.653999999999996 99.346,32.0 64.0,32.0"/>
<path id="3" d="M 224.0,224.0 C 206.327,224.0 192.0,238.327 192.0,256.0 C 192.0,273.673 206.327,288.0 224.0,288.0 C 241.673,288.0 256.0,273.673 256.0,256.0 C 256.0,238.327 241.673,224.0 224.0,224.0"/>
<path id="4" d="M 224.0,384.0 C 206.327,384.0 192.0,398.327 192.0,416.0 C 192.0,433.673 206.327,448.0 224.0,448.0 C 241.673,448.0 256.0,433.673 256.0,416.0 C 256.0,398.327 241.673,384.0 224.0,384.0"/>
<path id="5" d="M 224.0,32.0 C 188.654,32.0 160.0,60.653999999999996 160.0,96.0 C 160.0,131.346 188.654,160.0 224.0,160.0 C 259.346,160.0 288.0,131.346 288.0,96.0 C 288.0,60.653999999999996 259.346,32.0 224.0,32.0"/>
<path id="6" d="M 448.0,224.0 C 430.327,224.0 416.0,238.327 416.0,256.0 C 416.0,273.673 430.327,288.0 448.0,288.0 C 465.673,288.0 480.0,273.673 480.0,256.0 C 480.0,238.327 465.673,224.0 448.0,224.0"/>
<path id="7" d="M 448.0,384.0 C 430.327,384.0 416.0,398.327 416.0,416.0 C 416.0,433.673 430.327,448.0 448.0,448.0 C 465.673,448.0 480.0,433.673 480.0,416.0 C 480.0,398.327 465.673,384.0 448.0,384.0"/>
<path id="8" d="M 448.0,32.0 C 412.654,32.0 384.0,60.653999999999996 384.0,96.0 C 384.0,131.346 412.654,160.0 448.0,160.0 C 483.346,160.0 512.0,131.346 512.0,96.0 C 512.0,60.653999999999996 483.346,32.0 448.0,32.0"/>
<path id="9" d="M 608.0,224.0 C 590.327,224.0 576.0,238.327 576.0,256.0 C 576.0,273.673 590.327,288.0 608.0,288.0 C 625.673,288.0 640.0,273.673 640.0,256.0 C 640.0,238.327 625.673,224.0 608.0,224.0"/>
<path id="10" d="M 608.0,384.0 C 590.327,384.0 576.0,398.327 576.0,416.0 C 576.0,433.673 590.327,448.0 608.0,448.0 C 625.673,448.0 640.0,433.673 640.0,416.0 C 640.0,398.327 625.673,384.0 608.0,384.0"/>
<path id="11" d="M 608.0,64.0 C 590.327,64.0 576.0,78.327 576.0,96.0 C 576.0,113.673 590.327,128.0 608.0,128.0 C 625.673,128.0 640.0,113.673 640.0,96.0 C 640.0,78.327 625.673,64.0 608.0,64.0"/>
</g>
</g>
</svg>