<?xml version="1.0" encoding="utf-8"?>
<!DOCTYPE svg PUBLIC "-//W3C//DTD SVG 1.1//EN" "http://www.w3.org/Graphics/SVG/1.1/DTD/svg11.dtd">
<svg viewBox="0 0 800 800" preserveAspectRatio="xMinYMin meet" xmlns="http://www.w3.org/2000/svg" version="1.1"
><g fill="none" stroke="black" stroke-linecap="round" stroke-linejoin="round" stroke-width="1.2">
<g transform="translate(100,100) scale(1) translate(0,0)">
<path id="0" d="M 569.344,231.631 C 512.96,135.949 407.81,72.0 288.0,72.0 C 259.532,72.0 231.898,75.619 205.549,82.409"/>
<path id="1" d="M 205.549,82.409 L 152.778,10.24"/>



<path id="5" d="M 100.34099999999998,46.944 L 143.47199999999998,105.339"/>
<path id="6" d="M 143.47199999999998,105.339 C 89.449,131.73 40.228,174.683 6.682,231.581 C 6.672000000000001,231.59799999999998 6.659000000000001,231.61399999999998 6.648000000000001,231.631 C -2.117,246.506 -2.316,265.159 6.648000000000001,280.37 C 45.148,345.702 106.39,396.23199999999997 179.507,421.719"/>
<path id="7" d="M 179.507,421.719 L 55.316,244.302"/>

<path id="9" d="M 83.61,208.39 L 203.01,378.97"/>

<path id="11" d="M 203.01999999999998,378.97 L 243.64999999999998,437.01000000000005"/>
<path id="12" d="M 243.65000000000003,437.01 C 269.82174619108787,440.5569856634935 296.32463038026407,440.94979506938836 322.5899999999999,438.18000000000006"/>
<path id="13" d="M 322.59,438.18000000000006 L 132.60999999999999,166.7800000000001"/>

<path id="15" d="M 171.387,145.2170000000001 L 423.223,501.7610000000001"/>





<path id="21" d="M 432.53299999999996,406.67100000000005 C 489.69399999999996,378.69300000000004 537.3679999999999,334.63100000000003 569.343,280.37000000000006 C 578.2183661084784,265.3359168398705 578.2187491789044,246.6654473472341 569.3439999999999,231.63100000000006"/>


<path id="24" d="M 370.96000000000004,318.71 C 395.64200000000005,286.143 398.67100000000005,242.35699999999997 379.76000000000005,207.02999999999997"/>

<path id="26" d="M 379.76000000000005,207.05999999999997 C 379.76000000000005,230.70999999999998 360.59000000000003,249.87999999999997 336.94000000000005,249.87999999999997 C 313.1120000000001,249.87999999999997 294.12000000000006,230.53099999999998 294.12000000000006,207.05999999999997 C 294.12000000000006,183.40999999999997 313.2900000000001,164.23999999999998 336.94000000000005,164.23999999999998"/>

<path id="28" d="M 336.97,164.23999999999998 C 312.22,150.99099999999999 283.44800000000004,148.59699999999998 257.46000000000004,156.55999999999997"/>

<path id="30" d="M 238.39200000000002,129.32299999999998 C 253.758,123.306 270.488,120.0 288.0,120.0 C 363.16200000000003,120.0 424.0,180.826 424.0,256.0 C 424.0,290.504 411.167,321.975 390.026,345.94"/>
</g>
</g>
</svg>
