<?xml version="1.0" encoding="utf-8"?>
<!DOCTYPE svg PUBLIC "-//W3C//DTD SVG 1.1//EN" "http://www.w3.org/Graphics/SVG/1.1/DTD/svg11.dtd">
<svg viewBox="0 0 800 800" preserveAspectRatio="xMinYMin meet" xmlns="http://www.w3.org/2000/svg" version="1.1"
><g fill="none" stroke="black" stroke-linecap="round" stroke-linejoin="round" stroke-width="1.2">
<g transform="translate(100,100) scale(1) translate(0,0)">



<path id="3" d="M 182.857,449.144 L 56.993,449.144"/>
<path id="4" d="M 56.993,449.144 C 40.972,449.144 27.556,436.033 27.863000000000003,420.015 C 28.16,404.491 40.835,392.0 56.428,392.0"/>
<path id="5" d="M 56.428,392.0 L 182.857,392.0"/>

<path id="7" d="M 182.857,386.286 L 29.136,386.286"/>
<path id="8" d="M 29.136,386.286 C 13.114999999999998,386.286 -0.30100000000000193,373.175 0.006000000000000227,357.157 C 0.3030000000000002,341.635 12.979000000000001,329.144 28.572,329.144"/>
<path id="9" d="M 28.572,329.144 L 182.858,329.144"/>

<path id="11" d="M 182.858,323.43 L 57.707,323.43"/>
<path id="12" d="M 57.707,323.43 C 41.686,323.43 28.27,310.319 28.577,294.301 C 28.874000000000002,278.779 41.550000000000004,266.288 57.143,266.288"/>
<path id="13" d="M 57.143,266.288 L 225.709,266.288"/>

<path id="15" d="M 194.624,243.68200000000002 C 181.862,234.401 179.041,216.53300000000002 188.322,203.77 C 197.603,191.00900000000001 215.472,188.18800000000002 228.234,197.46800000000002"/>
<path id="16" d="M 228.234,197.46800000000002 L 351.595,287.183"/>

<path id="18" d="M 365.71500000000003,314.911 L 365.71500000000003,456.047"/>

<path id="20" d="M 339.28200000000004,489.42100000000005 L 258.81100000000004,508.3550000000001"/>

<path id="22" d="M 227.40000000000003,512.0010000000001 L 120.0,512.0010000000001"/>






<path id="29" d="M 173.745,176.91400000000007 C 163.90200000000002,164.27300000000008 145.315,161.74300000000008 132.865,171.82600000000008 C 120.80000000000001,181.5970000000001 118.73200000000001,199.27300000000008 128.312,211.57600000000008"/>


<path id="32" d="M 447.981,256.18300000000005 L 442.978,103.73100000000005"/>
<path id="33" d="M 442.978,103.73100000000005 C 442.46000000000004,87.96000000000005 429.25600000000003,75.59500000000006 413.485,76.11200000000005 C 397.712,76.63000000000005 385.348,89.83400000000005 385.866,105.60500000000005"/>

<path id="35" d="M 387.128,144.02000000000004 L 283.565,11.019"/>
<path id="36" d="M 283.565,11.019 C 273.985,-1.2840000000000007 256.342,-3.6110000000000007 243.912,5.691 C 231.085,15.29 228.983,33.931 238.826,46.572"/>
<path id="37" d="M 238.826,46.572 L 315.715,145.317"/>

<path id="39" d="M 311.20599999999996,148.828 L 216.41599999999994,27.09400000000001"/>
<path id="40" d="M 216.41599999999994,27.09400000000001 C 206.83599999999993,14.791000000000007 189.19299999999993,12.464000000000008 176.76299999999995,21.76600000000001 C 163.93599999999995,31.36500000000001 161.83399999999995,50.00600000000001 171.67699999999994,62.647000000000006"/>
<path id="41" d="M 171.67699999999994,62.647000000000006 L 266.11999999999995,183.935"/>

<path id="43" d="M 261.61099999999993,187.446 L 183.93599999999992,87.692"/>

<path id="45" d="M 139.19699999999992,123.24499999999999 L 191.24999999999991,190.094"/>

<path id="47" d="M 232.9399999999999,190.998 L 356.2999999999999,280.712"/>





</g>
</g>
</svg>
