<?xml version="1.0" encoding="utf-8"?>
<!DOCTYPE svg PUBLIC "-//W3C//DTD SVG 1.1//EN" "http://www.w3.org/Graphics/SVG/1.1/DTD/svg11.dtd">
<svg viewBox="0 0 800 800" preserveAspectRatio="xMinYMin meet" xmlns="http://www.w3.org/2000/svg" version="1.1"
><g fill="none" stroke="black" stroke-linecap="round" stroke-linejoin="round" stroke-width="1.2">
<g transform="translate(100,100) scale(1) translate(0,0)">


<path id="2" d="M 503.10999999999996,435.777 L 437.645,468.663"/>
<path id="3" d="M 437.645,468.663 C 421.596,476.63 402.089,469.857 394.45599999999996,453.608"/>
<path id="4" d="M 394.45599999999996,453.608 L 331.679,320.0"/>
<path id="5" d="M 331.679,320.0 L 192.0,320.0"/>
<path id="6" d="M 192.0,320.0 C 176.075,320.0 162.574,308.29 160.321,292.525 C 126.433,55.308 128.38,70.044 128.0,64.0 C 128.0,27.642000000000003 158.318,-1.6350000000000051 195.05200000000002,0.07099999999999795 C 228.32300000000004,1.6159999999999979 255.10000000000002,28.976 255.97700000000003,62.272 C 256.845,95.205 232.82500000000005,122.695 201.36900000000003,127.311"/>

<path id="8" d="M 206.03900000000002,160.001 L 336.0,160.001"/>



<path id="12" d="M 336.0,224.001 L 215.182,224.001"/>

<path id="14" d="M 219.754,256.001 L 352.0,256.001"/>

<path id="16" d="M 380.962,274.393 L 438.477,396.8"/>




<path id="21" d="M 286.852,352.0 C 279.06399999999996,406.204 232.32399999999998,448.0 175.99999999999997,448.0 C 114.24299999999997,448.0 63.99999999999997,397.757 63.99999999999997,336.0 C 63.99999999999997,294.495 86.69399999999997,258.19100000000003 120.32399999999997,238.844 C 116.61199999999997,212.879 113.47999999999998,190.98399999999998 110.83599999999997,172.511 C 45.956,198.464 0.0,261.963 0.0,336.0 C 0.0,433.047 78.953,512.0 176.0,512.0 C 247.87,512.0 309.80600000000004,468.692 337.11,406.808"/>
<path id="22" d="M 337.11,406.808 L 311.358,352.0"/>
</g>
</g>
</svg>
